<svg xmlns="http://www.w3.org/2000/svg" version="1.1" xmlns:xlink="http://www.w3.org/1999/xlink" xmlns:svgjs="http://svgjs.com/svgjs" height="128.70000457763672" width="181.50697326660156"><g id="SvgjsG1016" rel="mainfill" name="main_text" xmlns:name="mainText_mainfill" transform="translate(-2.050001621246338,82.70000076293945)"><path fill="#ce550f" d="M19.475 20.5 l0 6.97 l-5.822 0 l0 6.56 l5.822 0 l0 6.97 l-6.642 0 l0 -1.23 l-1.23 0 l0 -1.23 l-1.23 0 l0 -1.23 l-1.23 0 l0 -1.23 l-1.23 0 l0 -1.23 l-1.23 0 l0 -7.38 l-4.633 0 l0 -6.97 l4.633 0 l0 -8.2 l6.97 0 l0 8.2 l5.822 0 z M11.193 25.009999999999998 l0 0.41 l0.41 0 l0 -0.41 l-0.41 0 z M7.503 22.55 l0 0.41 l0.41 0 l0 -0.41 l-0.41 0 z M11.193 22.55 l0 0.41 l0.41 0 l0 -0.41 l-0.41 0 z M12.423 26.240000000000002 l0 0.41 l0.41 0 l0 -0.41 l-0.41 0 z M7.503 25.009999999999998 l0 0.41 l0.41 0 l0 -0.41 l-0.41 0 z M7.503 23.78 l0 0.41 l0.41 0 l0 -0.41 l-0.41 0 z M8.733 21.32 l0 0.41 l0.41 0 l0 -0.41 l-0.41 0 z M8.733 23.78 l0 0.41 l0.41 0 l0 -0.41 l-0.41 0 z M11.193 21.32 l0 0.41 l0.41 0 l0 -0.41 l-0.41 0 z M9.963 36.08 l0 0.41 l0.41 0 l0 -0.41 l-0.41 0 z M12.423 34.85 l0 0.41 l0.41 0 l0 -0.41 l-0.41 0 z M11.193 26.240000000000002 l0 0.41 l0.41 0 l0 -0.41 l-0.41 0 z M7.503 26.240000000000002 l0 0.41 l0.41 0 l0 -0.41 l-0.41 0 z M11.193 34.85 l0 0.41 l0.41 0 l0 -0.41 l-0.41 0 z M11.193 36.08 l0 0.41 l0.41 0 l0 -0.41 l-0.41 0 z M9.963 34.85 l0 0.41 l0.41 0 l0 -0.41 l-0.41 0 z M12.423 36.08 l0 0.41 l0.41 0 l0 -0.41 l-0.41 0 z M9.963 23.78 l0 0.41 l0.41 0 l0 -0.41 l-0.41 0 z M9.963 26.240000000000002 l0 0.41 l0.41 0 l0 -0.41 l-0.41 0 z M7.503 21.32 l0 0.41 l0.41 0 l0 -0.41 l-0.41 0 z M11.193 23.78 l0 0.41 l0.41 0 l0 -0.41 l-0.41 0 z M9.963 25.009999999999998 l0 0.41 l0.41 0 l0 -0.41 l-0.41 0 z M8.733 22.55 l0 0.41 l0.41 0 l0 -0.41 l-0.41 0 z M12.423 23.78 l0 0.41 l0.41 0 l0 -0.41 l-0.41 0 z M8.733 26.240000000000002 l0 0.41 l0.41 0 l0 -0.41 l-0.41 0 z M12.423 22.55 l0 0.41 l0.41 0 l0 -0.41 l-0.41 0 z M12.423 25.009999999999998 l0 0.41 l0.41 0 l0 -0.41 l-0.41 0 z M9.963 22.55 l0 0.41 l0.41 0 l0 -0.41 l-0.41 0 z M12.423 21.32 l0 0.41 l0.41 0 l0 -0.41 l-0.41 0 z M12.423 37.31 l0 0.41 l0.41 0 l0 -0.41 l-0.41 0 z M8.733 25.009999999999998 l0 0.41 l0.41 0 l0 -0.41 l-0.41 0 z M11.193 37.31 l0 0.41 l0.41 0 l0 -0.41 l-0.41 0 z M9.963 21.32 l0 0.41 l0.41 0 l0 -0.41 l-0.41 0 z M12.423 38.54 l0 0.41 l0.41 0 l0 -0.41 l-0.41 0 z M8.733 34.85 l0 0.41 l0.41 0 l0 -0.41 l-0.41 0 z M43.747 26.65 l0 6.232 l-13.202 0 l0 1.148 l13.202 0 l0 0.82 l-6.15 6.15 l-7.872 0 l0 -1.23 l-1.23 0 l0 -1.23 l-1.23 0 l0 -1.23 l-1.23 0 l0 -1.23 l-1.23 0 l0 -1.23 l-1.23 0 l0 -8.2 l1.23 0 l0 -1.23 l1.23 0 l0 -1.23 l1.23 0 l0 -1.23 l1.23 0 l0 -1.23 l1.23 0 l0 -1.23 l7.872 0 l0 1.23 l1.23 0 l0 1.23 l1.23 0 l0 1.23 l1.23 0 l0 1.23 l1.23 0 l0 1.23 l1.23 0 z M30.545 28.372 l6.232 0 l0 -0.902 l-6.232 0 l0 0.902 z M42.517 29.602 l0.451 0 l0 -0.41 l-0.451 0 l0 0.41 z M42.517 32.062 l0.451 0 l0 -0.41 l-0.451 0 l0 0.41 z M42.517 30.832 l0.451 0 l0 -0.41 l-0.451 0 l0 0.41 z M29.315 36.08 l0 0.41 l0.41 0 l0 -0.41 l-0.41 0 z M40.057 31.652 l0 0.41 l0.41 0 l0 -0.41 l-0.41 0 z M39.237 25.42 l0 -0.41 l-0.41 0 l0 0.41 l0.41 0 z M37.597 31.652 l0 0.41 l0.41 0 l0 -0.41 l-0.41 0 z M29.315 25.009999999999998 l0 0.41 l0.41 0 l0 -0.41 l-0.41 0 z M38.007000000000005 26.65 l0 -0.41 l-0.41 0 l0 0.41 l0.41 0 z M38.827 31.652 l0 0.41 l0.41 0 l0 -0.41 l-0.41 0 z M41.287000000000006 29.192 l0 0.41 l0.41 0 l0 -0.41 l-0.41 0 z M40.467 26.65 l0 -0.41 l-0.41 0 l0 0.41 l0.41 0 z M40.057 29.192 l0 0.41 l0.41 0 l0 -0.41 l-0.41 0 z M29.315 23.78 l0 0.41 l0.41 0 l0 -0.41 l-0.41 0 z M39.237 24.19 l0 -0.41 l-0.41 0 l0 0.41 l0.41 0 z M28.085 37.31 l0 0.41 l0.41 0 l0 -0.41 l-0.41 0 z M28.085 26.240000000000002 l0 0.41 l0.41 0 l0 -0.41 l-0.41 0 z M40.467 25.42 l0 -0.41 l-0.41 0 l0 0.41 l0.41 0 z M41.287000000000006 31.652 l0 0.41 l0.41 0 l0 -0.41 l-0.41 0 z M29.315 26.240000000000002 l0 0.41 l0.41 0 l0 -0.41 l-0.41 0 z M26.855000000000004 26.240000000000002 l0 0.41 l0.41 0 l0 -0.41 l-0.41 0 z M28.085 34.85 l0 0.41 l0.41 0 l0 -0.41 l-0.41 0 z M29.315 38.54 l0 0.41 l0.41 0 l0 -0.41 l-0.41 0 z M28.085 25.009999999999998 l0 0.41 l0.41 0 l0 -0.41 l-0.41 0 z M25.625 26.240000000000002 l0 0.41 l0.41 0 l0 -0.41 l-0.41 0 z M37.597 30.422 l0 0.41 l0.41 0 l0 -0.41 l-0.41 0 z M29.315 34.85 l0 0.41 l0.41 0 l0 -0.41 l-0.41 0 z M26.855000000000004 34.85 l0 0.41 l0.41 0 l0 -0.41 l-0.41 0 z M41.287000000000006 30.422 l0 0.41 l0.41 0 l0 -0.41 l-0.41 0 z M38.827 30.422 l0 0.41 l0.41 0 l0 -0.41 l-0.41 0 z M38.007000000000005 25.42 l0 -0.41 l-0.41 0 l0 0.41 l0.41 0 z M28.085 36.08 l0 0.41 l0.41 0 l0 -0.41 l-0.41 0 z M38.827 29.192 l0 0.41 l0.41 0 l0 -0.41 l-0.41 0 z M29.315 22.55 l0 0.41 l0.41 0 l0 -0.41 l-0.41 0 z M38.007000000000005 22.96 l0 -0.41 l-0.41 0 l0 0.41 l0.41 0 z M40.057 30.422 l0 0.41 l0.41 0 l0 -0.41 l-0.41 0 z M25.625 34.85 l0 0.41 l0.41 0 l0 -0.41 l-0.41 0 z M41.697 26.65 l0 -0.41 l-0.41 0 l0 0.41 l0.41 0 z M37.597 29.192 l0 0.41 l0.41 0 l0 -0.41 l-0.41 0 z M28.085 23.78 l0 0.41 l0.41 0 l0 -0.41 l-0.41 0 z M38.007000000000005 24.19 l0 -0.41 l-0.41 0 l0 0.41 l0.41 0 z M26.855000000000004 25.009999999999998 l0 0.41 l0.41 0 l0 -0.41 l-0.41 0 z M39.237 26.65 l0 -0.41 l-0.41 0 l0 0.41 l0.41 0 z M29.315 37.31 l0 0.41 l0.41 0 l0 -0.41 l-0.41 0 z M26.855000000000004 36.08 l0 0.41 l0.41 0 l0 -0.41 l-0.41 0 z M75.153 41 l-6.97 0 l0 -13.53 l-3.198 0 l0 13.53 l-6.97 0 l0 -13.53 l-3.198 0 l0 13.53 l-6.97 0 l0 -20.5 l5.74 0 l0 1.23 l0.41 0 l0 -1.23 l4.838 0 l0 1.23 l1.23 0 l0 1.23 l1.23 0 l0 1.23 l0.41 0 l0 -1.23 l1.23 0 l0 -1.23 l1.23 0 l0 -1.23 l4.838 0 l0 1.23 l1.23 0 l0 1.23 l1.23 0 l0 1.23 l1.23 0 l0 1.23 l1.23 0 l0 1.23 l1.23 0 l0 14.35 z M69.41300000000001 25.42 l0 -0.41 l-0.41 0 l0 0.41 l0.41 0 z M69.41300000000001 24.19 l0 -0.41 l-0.41 0 l0 0.41 l0.41 0 z M52.357000000000006 26.240000000000002 l0 0.41 l0.41 0 l0 -0.41 l-0.41 0 z M51.127 26.240000000000002 l0 0.41 l0.41 0 l0 -0.41 l-0.41 0 z M53.587 25.009999999999998 l0 0.41 l0.41 0 l0 -0.41 l-0.41 0 z M60.47500000000001 24.19 l0 -0.41 l-0.41 0 l0 0.41 l0.41 0 z M62.525000000000006 26.240000000000002 l0 0.41 l0.41 0 l0 -0.41 l-0.41 0 z M60.47500000000001 25.42 l0 -0.41 l-0.41 0 l0 0.41 l0.41 0 z M59.245000000000005 26.65 l0 -0.41 l-0.41 0 l0 0.41 l0.41 0 z M59.245000000000005 22.96 l0 -0.41 l-0.41 0 l0 0.41 l0.41 0 z M63.755 22.55 l0 0.41 l0.41 0 l0 -0.41 l-0.41 0 z M71.873 25.42 l0 -0.41 l-0.41 0 l0 0.41 l0.41 0 z M61.295 26.240000000000002 l0 0.41 l0.41 0 l0 -0.41 l-0.41 0 z M59.245000000000005 24.19 l0 -0.41 l-0.41 0 l0 0.41 l0.41 0 z M62.525000000000006 25.009999999999998 l0 0.41 l0.41 0 l0 -0.41 l-0.41 0 z M52.357000000000006 23.78 l0 0.41 l0.41 0 l0 -0.41 l-0.41 0 z M49.897000000000006 26.240000000000002 l0 0.41 l0.41 0 l0 -0.41 l-0.41 0 z M52.357000000000006 25.009999999999998 l0 0.41 l0.41 0 l0 -0.41 l-0.41 0 z M53.587 26.240000000000002 l0 0.41 l0.41 0 l0 -0.41 l-0.41 0 z M53.587 22.55 l0 0.41 l0.41 0 l0 -0.41 l-0.41 0 z M59.245000000000005 25.42 l0 -0.41 l-0.41 0 l0 0.41 l0.41 0 z M62.525000000000006 23.78 l0 0.41 l0.41 0 l0 -0.41 l-0.41 0 z M53.587 23.78 l0 0.41 l0.41 0 l0 -0.41 l-0.41 0 z M51.127 25.009999999999998 l0 0.41 l0.41 0 l0 -0.41 l-0.41 0 z M70.643 24.19 l0 -0.41 l-0.41 0 l0 0.41 l0.41 0 z M63.755 26.240000000000002 l0 0.41 l0.41 0 l0 -0.41 l-0.41 0 z M63.755 25.009999999999998 l0 0.41 l0.41 0 l0 -0.41 l-0.41 0 z M63.755 23.78 l0 0.41 l0.41 0 l0 -0.41 l-0.41 0 z M61.295 25.009999999999998 l0 0.41 l0.41 0 l0 -0.41 l-0.41 0 z M70.643 25.42 l0 -0.41 l-0.41 0 l0 0.41 l0.41 0 z M73.10300000000001 26.65 l0 -0.41 l-0.41 0 l0 0.41 l0.41 0 z M60.47500000000001 26.65 l0 -0.41 l-0.41 0 l0 0.41 l0.41 0 z M69.41300000000001 22.96 l0 -0.41 l-0.41 0 l0 0.41 l0.41 0 z M69.41300000000001 26.65 l0 -0.41 l-0.41 0 l0 0.41 l0.41 0 z M71.873 26.65 l0 -0.41 l-0.41 0 l0 0.41 l0.41 0 z M70.643 26.65 l0 -0.41 l-0.41 0 l0 0.41 l0.41 0 z M101.434 41 l-16.031 0 l0 -1.23 l-1.23 0 l0 -1.23 l-1.23 0 l0 -1.23 l-1.23 0 l0 -1.23 l-1.23 0 l0 -1.23 l-1.23 0 l0 -8.2 l1.23 0 l0 -1.23 l1.23 0 l0 -1.23 l1.23 0 l0 -1.23 l1.23 0 l0 -1.23 l1.23 0 l0 -1.23 l9.881 0 l0 1.23 l1.23 0 l0 1.23 l1.23 0 l0 1.23 l1.23 0 l0 1.23 l1.23 0 l0 1.23 l1.23 0 l0 14.35 z M86.223 27.47 l0 6.56 l8.241 0 l0 -6.56 l-8.241 0 z M82.533 26.240000000000002 l0 0.41 l0.41 0 l0 -0.41 l-0.41 0 z M84.99300000000001 34.85 l0 0.41 l0.41 0 l0 -0.41 l-0.41 0 z M84.99300000000001 23.78 l0 0.41 l0.41 0 l0 -0.41 l-0.41 0 z M98.154 26.65 l0 -0.41 l-0.41 0 l0 0.41 l0.41 0 z M95.694 26.65 l0 -0.41 l-0.41 0 l0 0.41 l0.41 0 z M84.99300000000001 26.240000000000002 l0 0.41 l0.41 0 l0 -0.41 l-0.41 0 z M84.99300000000001 25.009999999999998 l0 0.41 l0.41 0 l0 -0.41 l-0.41 0 z M96.924 25.42 l0 -0.41 l-0.41 0 l0 0.41 l0.41 0 z M84.99300000000001 37.31 l0 0.41 l0.41 0 l0 -0.41 l-0.41 0 z M81.303 26.240000000000002 l0 0.41 l0.41 0 l0 -0.41 l-0.41 0 z M82.533 36.08 l0 0.41 l0.41 0 l0 -0.41 l-0.41 0 z M83.763 23.78 l0 0.41 l0.41 0 l0 -0.41 l-0.41 0 z M96.51400000000001 34.85 l0 0.41 l0.41 0 l0 -0.41 l-0.41 0 z M95.284 37.31 l0 0.41 l0.41 0 l0 -0.41 l-0.41 0 z M82.533 34.85 l0 0.41 l0.41 0 l0 -0.41 l-0.41 0 z M95.694 22.96 l0 -0.41 l-0.41 0 l0 0.41 l0.41 0 z M96.51400000000001 36.08 l0 0.41 l0.41 0 l0 -0.41 l-0.41 0 z M96.51400000000001 37.31 l0 0.41 l0.41 0 l0 -0.41 l-0.41 0 z M97.744 34.85 l0 0.41 l0.41 0 l0 -0.41 l-0.41 0 z M83.763 37.31 l0 0.41 l0.41 0 l0 -0.41 l-0.41 0 z M95.284 34.85 l0 0.41 l0.41 0 l0 -0.41 l-0.41 0 z M84.99300000000001 36.08 l0 0.41 l0.41 0 l0 -0.41 l-0.41 0 z M96.924 24.19 l0 -0.41 l-0.41 0 l0 0.41 l0.41 0 z M95.694 25.42 l0 -0.41 l-0.41 0 l0 0.41 l0.41 0 z M95.694 24.19 l0 -0.41 l-0.41 0 l0 0.41 l0.41 0 z M99.384 26.65 l0 -0.41 l-0.41 0 l0 0.41 l0.41 0 z M96.924 26.65 l0 -0.41 l-0.41 0 l0 0.41 l0.41 0 z M95.284 38.54 l0 0.41 l0.41 0 l0 -0.41 l-0.41 0 z M83.763 36.08 l0 0.41 l0.41 0 l0 -0.41 l-0.41 0 z M95.284 36.08 l0 0.41 l0.41 0 l0 -0.41 l-0.41 0 z M83.763 26.240000000000002 l0 0.41 l0.41 0 l0 -0.41 l-0.41 0 z M83.763 34.85 l0 0.41 l0.41 0 l0 -0.41 l-0.41 0 z M98.974 34.85 l0 0.41 l0.41 0 l0 -0.41 l-0.41 0 z M98.154 25.42 l0 -0.41 l-0.41 0 l0 0.41 l0.41 0 z M97.744 36.08 l0 0.41 l0.41 0 l0 -0.41 l-0.41 0 z M83.763 25.009999999999998 l0 0.41 l0.41 0 l0 -0.41 l-0.41 0 z M81.303 34.85 l0 0.41 l0.41 0 l0 -0.41 l-0.41 0 z M82.533 25.009999999999998 l0 0.41 l0.41 0 l0 -0.41 l-0.41 0 z M84.99300000000001 38.54 l0 0.41 l0.41 0 l0 -0.41 l-0.41 0 z M84.99300000000001 22.55 l0 0.41 l0.41 0 l0 -0.41 l-0.41 0 z M122.959 20.5 l0 6.97 l-5.822 0 l0 6.56 l5.822 0 l0 6.97 l-6.642 0 l0 -1.23 l-1.23 0 l0 -1.23 l-1.23 0 l0 -1.23 l-1.23 0 l0 -1.23 l-1.23 0 l0 -1.23 l-1.23 0 l0 -7.38 l-4.633 0 l0 -6.97 l4.633 0 l0 -8.2 l6.97 0 l0 8.2 l5.822 0 z M114.677 25.009999999999998 l0 0.41 l0.41 0 l0 -0.41 l-0.41 0 z M110.98700000000001 22.55 l0 0.41 l0.41 0 l0 -0.41 l-0.41 0 z M114.677 22.55 l0 0.41 l0.41 0 l0 -0.41 l-0.41 0 z M115.90700000000001 26.240000000000002 l0 0.41 l0.41 0 l0 -0.41 l-0.41 0 z M110.98700000000001 25.009999999999998 l0 0.41 l0.41 0 l0 -0.41 l-0.41 0 z M110.98700000000001 23.78 l0 0.41 l0.41 0 l0 -0.41 l-0.41 0 z M112.21700000000001 21.32 l0 0.41 l0.41 0 l0 -0.41 l-0.41 0 z M112.21700000000001 23.78 l0 0.41 l0.41 0 l0 -0.41 l-0.41 0 z M114.677 21.32 l0 0.41 l0.41 0 l0 -0.41 l-0.41 0 z M113.447 36.08 l0 0.41 l0.41 0 l0 -0.41 l-0.41 0 z M115.90700000000001 34.85 l0 0.41 l0.41 0 l0 -0.41 l-0.41 0 z M114.677 26.240000000000002 l0 0.41 l0.41 0 l0 -0.41 l-0.41 0 z M110.98700000000001 26.240000000000002 l0 0.41 l0.41 0 l0 -0.41 l-0.41 0 z M114.677 34.85 l0 0.41 l0.41 0 l0 -0.41 l-0.41 0 z M114.677 36.08 l0 0.41 l0.41 0 l0 -0.41 l-0.41 0 z M113.447 34.85 l0 0.41 l0.41 0 l0 -0.41 l-0.41 0 z M115.90700000000001 36.08 l0 0.41 l0.41 0 l0 -0.41 l-0.41 0 z M113.447 23.78 l0 0.41 l0.41 0 l0 -0.41 l-0.41 0 z M113.447 26.240000000000002 l0 0.41 l0.41 0 l0 -0.41 l-0.41 0 z M110.98700000000001 21.32 l0 0.41 l0.41 0 l0 -0.41 l-0.41 0 z M114.677 23.78 l0 0.41 l0.41 0 l0 -0.41 l-0.41 0 z M113.447 25.009999999999998 l0 0.41 l0.41 0 l0 -0.41 l-0.41 0 z M112.21700000000001 22.55 l0 0.41 l0.41 0 l0 -0.41 l-0.41 0 z M115.90700000000001 23.78 l0 0.41 l0.41 0 l0 -0.41 l-0.41 0 z M112.21700000000001 26.240000000000002 l0 0.41 l0.41 0 l0 -0.41 l-0.41 0 z M115.90700000000001 22.55 l0 0.41 l0.41 0 l0 -0.41 l-0.41 0 z M115.90700000000001 25.009999999999998 l0 0.41 l0.41 0 l0 -0.41 l-0.41 0 z M113.447 22.55 l0 0.41 l0.41 0 l0 -0.41 l-0.41 0 z M115.90700000000001 21.32 l0 0.41 l0.41 0 l0 -0.41 l-0.41 0 z M115.90700000000001 37.31 l0 0.41 l0.41 0 l0 -0.41 l-0.41 0 z M112.21700000000001 25.009999999999998 l0 0.41 l0.41 0 l0 -0.41 l-0.41 0 z M114.677 37.31 l0 0.41 l0.41 0 l0 -0.41 l-0.41 0 z M113.447 21.32 l0 0.41 l0.41 0 l0 -0.41 l-0.41 0 z M115.90700000000001 38.54 l0 0.41 l0.41 0 l0 -0.41 l-0.41 0 z M112.21700000000001 34.85 l0 0.41 l0.41 0 l0 -0.41 l-0.41 0 z M127.05900000000001 41 l0 -20.5 l6.97 0 l0 20.5 l-6.97 0 z M134.02900000000002 17.671 l-6.97 0 l0 -5.371 l6.97 0 l0 5.371 z M158.137 34.03 l0 6.97 l-13.858 0 l0 -1.23 l-1.23 0 l0 -1.23 l-1.23 0 l0 -1.23 l-1.23 0 l0 -1.23 l-1.23 0 l0 -1.23 l-1.23 0 l0 -8.2 l1.23 0 l0 -1.23 l1.23 0 l0 -1.23 l1.23 0 l0 -1.23 l1.23 0 l0 -1.23 l1.23 0 l0 -1.23 l13.858 0 l0 6.97 l-13.038 0 l0 6.56 l13.038 0 z M142.639 37.31 l0 0.41 l0.41 0 l0 -0.41 l-0.41 0 z M141.40900000000002 25.009999999999998 l0 0.41 l0.41 0 l0 -0.41 l-0.41 0 z M143.869 23.78 l0 0.41 l0.41 0 l0 -0.41 l-0.41 0 z M143.869 25.009999999999998 l0 0.41 l0.41 0 l0 -0.41 l-0.41 0 z M141.40900000000002 34.85 l0 0.41 l0.41 0 l0 -0.41 l-0.41 0 z M143.869 36.08 l0 0.41 l0.41 0 l0 -0.41 l-0.41 0 z M143.869 34.85 l0 0.41 l0.41 0 l0 -0.41 l-0.41 0 z M141.40900000000002 26.240000000000002 l0 0.41 l0.41 0 l0 -0.41 l-0.41 0 z M141.40900000000002 36.08 l0 0.41 l0.41 0 l0 -0.41 l-0.41 0 z M143.869 37.31 l0 0.41 l0.41 0 l0 -0.41 l-0.41 0 z M142.639 26.240000000000002 l0 0.41 l0.41 0 l0 -0.41 l-0.41 0 z M142.639 36.08 l0 0.41 l0.41 0 l0 -0.41 l-0.41 0 z M143.869 22.55 l0 0.41 l0.41 0 l0 -0.41 l-0.41 0 z M143.869 26.240000000000002 l0 0.41 l0.41 0 l0 -0.41 l-0.41 0 z M140.179 34.85 l0 0.41 l0.41 0 l0 -0.41 l-0.41 0 z M143.869 38.54 l0 0.41 l0.41 0 l0 -0.41 l-0.41 0 z M142.639 25.009999999999998 l0 0.41 l0.41 0 l0 -0.41 l-0.41 0 z M140.179 26.240000000000002 l0 0.41 l0.41 0 l0 -0.41 l-0.41 0 z M142.639 34.85 l0 0.41 l0.41 0 l0 -0.41 l-0.41 0 z M142.639 23.78 l0 0.41 l0.41 0 l0 -0.41 l-0.41 0 z M168.387 20.5 l9.02 0 l0 1.23 l1.23 0 l0 1.23 l1.23 0 l0 1.23 l1.23 0 l0 1.23 l1.23 0 l0 1.23 l1.23 0 l0 8.2 l-1.23 0 l0 1.23 l-1.23 0 l0 1.23 l-1.23 0 l0 1.23 l-1.23 0 l0 1.23 l-1.23 0 l0 1.23 l-9.02 0 l0 -1.23 l-1.23 0 l0 -1.23 l-1.23 0 l0 -1.23 l-1.23 0 l0 -1.23 l-1.23 0 l0 -1.23 l-1.23 0 l0 -8.2 l1.23 0 l0 -1.23 l1.23 0 l0 -1.23 l1.23 0 l0 -1.23 l1.23 0 l0 -1.23 l1.23 0 l0 -1.23 z M169.20700000000002 27.47 l0 6.56 l7.38 0 l0 -6.56 l-7.38 0 z M166.747 36.08 l0 0.41 l0.41 0 l0 -0.41 l-0.41 0 z M166.747 26.240000000000002 l0 0.41 l0.41 0 l0 -0.41 l-0.41 0 z M167.977 37.31 l0 0.41 l0.41 0 l0 -0.41 l-0.41 0 z M165.51700000000002 36.08 l0 0.41 l0.41 0 l0 -0.41 l-0.41 0 z M165.51700000000002 26.240000000000002 l0 0.41 l0.41 0 l0 -0.41 l-0.41 0 z M167.977 34.85 l0 0.41 l0.41 0 l0 -0.41 l-0.41 0 z M167.977 36.08 l0 0.41 l0.41 0 l0 -0.41 l-0.41 0 z M165.51700000000002 34.85 l0 0.41 l0.41 0 l0 -0.41 l-0.41 0 z M167.977 25.009999999999998 l0 0.41 l0.41 0 l0 -0.41 l-0.41 0 z M167.977 23.78 l0 0.41 l0.41 0 l0 -0.41 l-0.41 0 z M165.51700000000002 25.009999999999998 l0 0.41 l0.41 0 l0 -0.41 l-0.41 0 z M166.747 37.31 l0 0.41 l0.41 0 l0 -0.41 l-0.41 0 z M166.747 25.009999999999998 l0 0.41 l0.41 0 l0 -0.41 l-0.41 0 z M180.27700000000002 36.49 l0 -0.41 l-0.41 0 l0 0.41 l0.41 0 z M166.747 23.78 l0 0.41 l0.41 0 l0 -0.41 l-0.41 0 z M177.817 37.72 l0 -0.41 l-0.41 0 l0 0.41 l0.41 0 z M180.27700000000002 26.65 l0 -0.41 l-0.41 0 l0 0.41 l0.41 0 z M179.04700000000003 26.65 l0 -0.41 l-0.41 0 l0 0.41 l0.41 0 z M180.27700000000002 35.26 l0 -0.41 l-0.41 0 l0 0.41 l0.41 0 z M177.817 26.65 l0 -0.41 l-0.41 0 l0 0.41 l0.41 0 z M181.507 35.26 l0 -0.41 l-0.41 0 l0 0.41 l0.41 0 z M177.817 38.95 l0 -0.41 l-0.41 0 l0 0.41 l0.41 0 z M179.04700000000003 36.49 l0 -0.41 l-0.41 0 l0 0.41 l0.41 0 z M181.507 26.65 l0 -0.41 l-0.41 0 l0 0.41 l0.41 0 z M179.04700000000003 24.19 l0 -0.41 l-0.41 0 l0 0.41 l0.41 0 z M179.04700000000003 35.26 l0 -0.41 l-0.41 0 l0 0.41 l0.41 0 z M164.287 34.85 l0 0.41 l0.41 0 l0 -0.41 l-0.41 0 z M167.977 38.54 l0 0.41 l0.41 0 l0 -0.41 l-0.41 0 z M166.747 34.85 l0 0.41 l0.41 0 l0 -0.41 l-0.41 0 z M179.04700000000003 37.72 l0 -0.41 l-0.41 0 l0 0.41 l0.41 0 z M177.817 25.42 l0 -0.41 l-0.41 0 l0 0.41 l0.41 0 z M177.817 22.96 l0 -0.41 l-0.41 0 l0 0.41 l0.41 0 z M177.817 35.26 l0 -0.41 l-0.41 0 l0 0.41 l0.41 0 z M179.04700000000003 25.42 l0 -0.41 l-0.41 0 l0 0.41 l0.41 0 z M167.977 26.240000000000002 l0 0.41 l0.41 0 l0 -0.41 l-0.41 0 z M164.287 26.240000000000002 l0 0.41 l0.41 0 l0 -0.41 l-0.41 0 z M177.817 24.19 l0 -0.41 l-0.41 0 l0 0.41 l0.41 0 z M177.817 36.49 l0 -0.41 l-0.41 0 l0 0.41 l0.41 0 z M167.977 22.55 l0 0.41 l0.41 0 l0 -0.41 l-0.41 0 z M180.27700000000002 25.42 l0 -0.41 l-0.41 0 l0 0.41 l0.41 0 z"></path></g><defs id="SvgjsDefs1015"></defs><g id="SvgjsG1017" fill="#ce550f" rel="mainfill" name="symbol" xmlns:name="symbol_mainfill" transform="translate(22.800230678992005,-25.452567722276) scale(1.359065145008286)"><path xmlns="http://www.w3.org/2000/svg" d="M92.39,42.793c-0.722-3.4-3.637-6.4-7.059-7.668c-0.056-0.291-0.096-0.582-0.154-0.873c-0.742-3.5-3.811-6.569-7.36-7.769  c-1.215-4.257-5.809-7.755-10.346-7.755H18.102c-4.732,0-9.536,3.806-10.494,8.323c-2.024,10-2.024,20.141,0.003,30.154  c0.745,3.516,3.75,6.587,7.363,7.781c0.908,3.163,3.678,5.904,6.908,7.101c0.056,0.291,0.096,0.583,0.155,0.874  c0.955,4.504,5.759,8.31,10.492,8.31h49.369c4.732,0,9.537-3.806,10.494-8.323C94.416,62.947,94.416,52.807,92.39,42.793z   M14.82,34.266c-1.819,8.99-1.989,18.093-0.534,27.116c-1.863-1.109-3.338-2.899-3.737-4.784  c-1.944-9.605-1.944-19.346-0.003-28.938c0.67-3.16,4.201-5.932,7.557-5.932h49.369c2.73,0,5.577,1.835,6.903,4.212H25.315  C20.583,25.94,15.778,29.747,14.82,34.266z M68.05,60.416l-15.6,8.938c-0.618,0.354-1.222,0.534-1.793,0.534  c-1.476,0-2.43-1.161-2.43-2.957V49.054c0-1.797,0.954-2.958,2.431-2.958c0.571,0,1.174,0.179,1.791,0.532l15.6,8.938  c1.087,0.623,1.685,1.484,1.685,2.425S69.136,59.793,68.05,60.416z M81.897,34.482H32.528c-4.732,0-9.537,3.806-10.495,8.324  c-1.723,8.509-1.964,17.118-0.754,25.666c-1.748-1.104-3.127-2.816-3.519-4.662c-1.944-9.604-1.944-19.345-0.003-28.937  c0.67-3.16,4.202-5.934,7.558-5.934h49.37c3.224,0,6.602,2.561,7.455,5.554C82.06,34.492,81.979,34.482,81.897,34.482z"></path></g></svg>